<svg width="116" height="48" viewBox="0 0 116 48" fill="none" xmlns="http://www.w3.org/2000/svg">
<rect width="116" height="48" rx="7" fill="#92A9CB"/>
<path d="M28.74 34.25H35.26C40.17 34.25 42.27 32.15 42.27 27.24V27.11C42.27 22.67 40.52 20.53 36.6 20.16C36.2 20.13 35.82 20.43 35.78 20.84C35.74 21.25 36.04 21.62 36.46 21.66C39.6 21.95 40.77 23.43 40.77 27.12V27.25C40.77 31.32 39.33 32.76 35.26 32.76H28.74C24.67 32.76 23.23 31.32 23.23 27.25V27.12C23.23 23.41 24.42 21.93 27.62 21.66C28.03 21.62 28.34 21.26 28.3 20.85C28.26 20.44 27.91 20.13 27.49 20.17C23.51 20.51 21.73 22.66 21.73 27.13V27.26C21.73 32.15 23.83 34.25 28.74 34.25Z" fill="white"/>
<path d="M32 27.75C32.41 27.75 32.75 27.41 32.75 27V15.62C32.75 15.21 32.41 14.87 32 14.87C31.59 14.87 31.25 15.21 31.25 15.62V27C31.25 27.41 31.59 27.75 32 27.75Z" fill="white"/>
<path d="M28.65 18.6C28.84 18.6 29.03 18.53 29.18 18.38L32 15.56L34.82 18.38C35.11 18.67 35.59 18.67 35.88 18.38C36.17 18.09 36.17 17.61 35.88 17.32L32.53 13.97C32.24 13.68 31.76 13.68 31.47 13.97L28.12 17.32C27.83 17.61 27.83 18.09 28.12 18.38C28.26 18.53 28.46 18.6 28.65 18.6Z" fill="white"/>
<path d="M60.93 19.805H56.925V23.18H60.405V24.32H56.925V27.86H61.215V29H55.5V18.665H61.095L60.93 19.805ZM69.2273 29H67.5623L65.6273 25.655L63.6623 29H62.1023L64.8623 24.83L62.4173 21.095H64.0373L65.6873 23.99L67.3523 21.095H68.9123L66.4823 24.77L69.2273 29ZM73.5394 20.915C74.0094 20.915 74.4394 20.985 74.8294 21.125C75.2194 21.255 75.5944 21.47 75.9544 21.77L75.2944 22.64C75.0144 22.44 74.7394 22.295 74.4694 22.205C74.2094 22.105 73.9194 22.055 73.5994 22.055C72.9594 22.055 72.4594 22.31 72.0994 22.82C71.7494 23.33 71.5744 24.085 71.5744 25.085C71.5744 26.085 71.7494 26.825 72.0994 27.305C72.4494 27.775 72.9494 28.01 73.5994 28.01C73.9094 28.01 74.1944 27.965 74.4544 27.875C74.7144 27.775 75.0044 27.62 75.3244 27.41L75.9544 28.31C75.2344 28.89 74.4294 29.18 73.5394 29.18C72.4694 29.18 71.6244 28.82 71.0044 28.1C70.3944 27.38 70.0894 26.385 70.0894 25.115C70.0894 24.275 70.2294 23.54 70.5094 22.91C70.7894 22.28 71.1844 21.79 71.6944 21.44C72.2144 21.09 72.8294 20.915 73.5394 20.915ZM83.5581 24.815C83.5581 25.045 83.5481 25.28 83.5281 25.52H78.4881C78.5481 26.39 78.7681 27.03 79.1481 27.44C79.5281 27.85 80.0181 28.055 80.6181 28.055C80.9981 28.055 81.3481 28 81.6681 27.89C81.9881 27.78 82.3231 27.605 82.6731 27.365L83.2731 28.19C82.4331 28.85 81.5131 29.18 80.5131 29.18C79.4131 29.18 78.5531 28.82 77.9331 28.1C77.3231 27.38 77.0181 26.39 77.0181 25.13C77.0181 24.31 77.1481 23.585 77.4081 22.955C77.6781 22.315 78.0581 21.815 78.5481 21.455C79.0481 21.095 79.6331 20.915 80.3031 20.915C81.3531 20.915 82.1581 21.26 82.7181 21.95C83.2781 22.64 83.5581 23.595 83.5581 24.815ZM82.1931 24.41C82.1931 23.63 82.0381 23.035 81.7281 22.625C81.4181 22.215 80.9531 22.01 80.3331 22.01C79.2031 22.01 78.5881 22.84 78.4881 24.5H82.1931V24.41ZM87.2623 29.18C86.7523 29.18 86.3473 29.03 86.0473 28.73C85.7573 28.42 85.6123 27.99 85.6123 27.44V17.915L86.9923 17.75V27.41C86.9923 27.62 87.0273 27.78 87.0973 27.89C87.1773 27.99 87.3073 28.04 87.4873 28.04C87.6773 28.04 87.8473 28.01 87.9973 27.95L88.3573 28.91C88.0273 29.09 87.6623 29.18 87.2623 29.18Z" fill="white"/>
</svg>
