<svg width="8" height="12" viewBox="0 0 8 12" fill="none" xmlns="http://www.w3.org/2000/svg">
<path fill-rule="evenodd" clip-rule="evenodd" d="M4.44194 0.558058C4.19786 0.313981 3.80214 0.313981 3.55806 0.558058L0.641391 3.47473C0.397314 3.7188 0.397314 4.11453 0.641391 4.35861C0.885469 4.60269 1.2812 4.60269 1.52527 4.35861L4 1.88388L6.47473 4.35861C6.7188 4.60269 7.11453 4.60269 7.35861 4.35861C7.60269 4.11453 7.60269 3.7188 7.35861 3.47473L4.44194 0.558058ZM7.35861 8.10861L4.44194 11.0253C4.19786 11.2694 3.80214 11.2694 3.55806 11.0253L0.641391 8.10861C0.397314 7.86453 0.397314 7.4688 0.641391 7.22473C0.885469 6.98065 1.2812 6.98065 1.52527 7.22473L4 9.69945L6.47473 7.22473C6.7188 6.98065 7.11453 6.98065 7.35861 7.22473C7.60269 7.4688 7.60269 7.86453 7.35861 8.10861Z" fill="#9496B8"/>
</svg>
