<svg width="125" height="48" viewBox="0 0 125 48" fill="none" xmlns="http://www.w3.org/2000/svg">
<rect width="125" height="48" rx="7" fill="#C41B62"/>
<path d="M34.83 27.58C35.02 27.58 35.21 27.51 35.36 27.36C35.65 27.07 35.65 26.59 35.36 26.3L29.7 20.64C29.41 20.35 28.93 20.35 28.64 20.64C28.35 20.93 28.35 21.41 28.64 21.7L34.3 27.36C34.44 27.51 34.64 27.58 34.83 27.58Z" fill="white"/>
<path d="M29.17 27.58C29.36 27.58 29.55 27.51 29.7 27.36L35.36 21.7C35.65 21.41 35.65 20.93 35.36 20.64C35.07 20.35 34.59 20.35 34.3 20.64L28.64 26.3C28.35 26.59 28.35 27.07 28.64 27.36C28.79 27.51 28.98 27.58 29.17 27.58Z" fill="white"/>
<path d="M29 34.75H35C40.43 34.75 42.75 32.43 42.75 27V21C42.75 15.57 40.43 13.25 35 13.25H29C23.57 13.25 21.25 15.57 21.25 21V27C21.25 32.43 23.57 34.75 29 34.75ZM35 14.75C39.61 14.75 41.25 16.39 41.25 21V27C41.25 31.61 39.61 33.25 35 33.25H29C24.39 33.25 22.75 31.61 22.75 27V21C22.75 16.39 24.39 14.75 29 14.75H35Z" fill="white"/>
<path d="M58.575 21.95C59.235 21.95 59.8 22.1 60.27 22.4C60.75 22.7 61.11 23.11 61.35 23.63C61.59 24.15 61.71 24.73 61.71 25.37C61.71 26.51 61.415 27.435 60.825 28.145C60.235 28.855 59.38 29.21 58.26 29.21C57.15 29.21 56.305 28.86 55.725 28.16C55.145 27.46 54.855 26.525 54.855 25.355V20.84C54.855 20.05 55.06 19.46 55.47 19.07C55.89 18.68 56.43 18.485 57.09 18.485C57.5 18.485 57.86 18.58 58.17 18.77C58.49 18.96 58.715 19.27 58.845 19.7C58.955 19.27 59.145 18.96 59.415 18.77C59.695 18.58 60.015 18.485 60.375 18.485C60.825 18.485 61.225 18.585 61.575 18.785L61.185 19.79C60.945 19.69 60.695 19.64 60.435 19.64C60.145 19.64 59.925 19.715 59.775 19.865C59.635 20.015 59.565 20.25 59.565 20.57V21.095H58.2V20.555C58.2 20.235 58.115 20 57.945 19.85C57.775 19.69 57.545 19.61 57.255 19.61C56.605 19.61 56.28 19.99 56.28 20.75V22.88C56.55 22.6 56.88 22.375 57.27 22.205C57.67 22.035 58.105 21.95 58.575 21.95ZM58.275 28.07C58.925 28.07 59.405 27.835 59.715 27.365C60.035 26.885 60.195 26.22 60.195 25.37C60.195 23.84 59.585 23.075 58.365 23.075C57.955 23.075 57.57 23.16 57.21 23.33C56.85 23.5 56.54 23.73 56.28 24.02V25.34C56.28 26.15 56.435 26.81 56.745 27.32C57.065 27.82 57.575 28.07 58.275 28.07ZM67.37 18.665C67.37 19.145 67.43 19.58 67.55 19.97C67.68 20.36 67.835 20.705 68.015 21.005C68.205 21.305 68.455 21.675 68.765 22.115C69.095 22.575 69.355 22.97 69.545 23.3C69.745 23.62 69.91 23.995 70.04 24.425C70.18 24.855 70.25 25.34 70.25 25.88C70.25 26.52 70.11 27.095 69.83 27.605C69.55 28.105 69.15 28.5 68.63 28.79C68.11 29.07 67.5 29.21 66.8 29.21C66.11 29.21 65.505 29.075 64.985 28.805C64.475 28.535 64.08 28.16 63.8 27.68C63.53 27.2 63.395 26.65 63.395 26.03C63.395 25.23 63.605 24.49 64.025 23.81L65.24 24.215C65.13 24.445 65.04 24.71 64.97 25.01C64.91 25.3 64.88 25.585 64.88 25.865C64.88 26.525 65.035 27.055 65.345 27.455C65.665 27.845 66.15 28.04 66.8 28.04C67.47 28.04 67.96 27.84 68.27 27.44C68.58 27.03 68.735 26.5 68.735 25.85C68.735 25.39 68.675 24.975 68.555 24.605C68.435 24.225 68.29 23.895 68.12 23.615C67.95 23.335 67.71 22.99 67.4 22.58C67.07 22.14 66.805 21.755 66.605 21.425C66.415 21.095 66.25 20.7 66.11 20.24C65.97 19.78 65.9 19.255 65.9 18.665H67.37ZM76.5694 18.485C77.2294 18.485 77.7644 18.68 78.1744 19.07C78.5844 19.46 78.7894 20.04 78.7894 20.81V25.58C78.7894 26.27 78.6594 26.89 78.3994 27.44C78.1394 27.99 77.7544 28.425 77.2444 28.745C76.7344 29.055 76.1144 29.21 75.3844 29.21C74.6344 29.21 73.9994 29.045 73.4794 28.715C72.9694 28.385 72.5844 27.945 72.3244 27.395C72.0644 26.845 71.9344 26.235 71.9344 25.565C71.9344 24.925 72.0644 24.33 72.3244 23.78C72.5944 23.23 72.9744 22.79 73.4644 22.46C73.9544 22.12 74.5194 21.95 75.1594 21.95C76.0194 21.95 76.7544 22.255 77.3644 22.865V20.75C77.3644 19.99 77.0394 19.61 76.3894 19.61C76.1094 19.61 75.8794 19.695 75.6994 19.865C75.5294 20.035 75.4444 20.28 75.4444 20.6V21.095H74.0794V20.6C74.0794 19.96 73.7894 19.64 73.2094 19.64C72.9494 19.64 72.6994 19.69 72.4594 19.79L72.0694 18.785C72.4294 18.585 72.8344 18.485 73.2844 18.485C73.6244 18.485 73.9294 18.58 74.1994 18.77C74.4794 18.96 74.6794 19.27 74.7994 19.7C74.9394 19.26 75.1644 18.95 75.4744 18.77C75.7944 18.58 76.1594 18.485 76.5694 18.485ZM75.3694 28.07C76.0494 28.07 76.5494 27.83 76.8694 27.35C77.1994 26.86 77.3644 26.265 77.3644 25.565V24.035C76.8044 23.395 76.1344 23.075 75.3544 23.075C74.7944 23.075 74.3344 23.3 73.9744 23.75C73.6244 24.19 73.4494 24.795 73.4494 25.565C73.4494 26.305 73.6094 26.91 73.9294 27.38C74.2494 27.84 74.7294 28.07 75.3694 28.07ZM89.2263 29C88.9763 28.48 88.6013 28.095 88.1013 27.845C87.6013 27.595 86.9563 27.47 86.1663 27.47C84.9763 27.47 83.8613 27.715 82.8213 28.205L82.4163 27.02C82.7863 26.88 83.1513 26.775 83.5113 26.705C83.8813 26.635 84.3013 26.6 84.7713 26.6C84.0213 26.31 83.3663 25.99 82.8063 25.64C82.2463 25.29 81.7713 24.81 81.3813 24.2C81.0013 23.59 80.8113 22.83 80.8113 21.92C80.8113 20.78 81.0713 19.925 81.5913 19.355C82.1213 18.775 82.7913 18.485 83.6013 18.485C84.2613 18.485 84.7763 18.63 85.1463 18.92C85.5263 19.2 85.7813 19.64 85.9113 20.24C86.0013 19.66 86.2263 19.225 86.5863 18.935C86.9563 18.635 87.4163 18.485 87.9663 18.485C88.5663 18.485 89.0363 18.625 89.3763 18.905C89.7263 19.185 89.9663 19.63 90.0963 20.24C90.1863 19.66 90.4213 19.225 90.8013 18.935C91.1813 18.635 91.6663 18.485 92.2563 18.485C93.1163 18.485 93.8163 18.78 94.3563 19.37C94.9063 19.96 95.1813 20.85 95.1813 22.04C95.1813 22.79 95.0763 23.43 94.8663 23.96C94.6663 24.49 94.3713 25.035 93.9813 25.595L92.7963 25.025C93.0963 24.565 93.3113 24.11 93.4413 23.66C93.5713 23.21 93.6363 22.695 93.6363 22.115C93.6363 21.185 93.5113 20.545 93.2613 20.195C93.0113 19.835 92.6413 19.655 92.1513 19.655C91.7113 19.655 91.3713 19.805 91.1313 20.105C90.9013 20.405 90.7863 20.855 90.7863 21.455V23.69H89.3763V21.455C89.3763 20.865 89.2513 20.42 89.0013 20.12C88.7613 19.81 88.4313 19.655 88.0113 19.655C87.5713 19.655 87.2263 19.81 86.9763 20.12C86.7263 20.42 86.6013 20.865 86.6013 21.455V23.69H85.1913V21.455C85.1913 20.795 85.0663 20.33 84.8163 20.06C84.5763 19.79 84.2313 19.655 83.7813 19.655C83.2713 19.655 82.9013 19.86 82.6713 20.27C82.4413 20.68 82.3263 21.23 82.3263 21.92C82.3263 23.07 82.7213 23.965 83.5113 24.605C84.3013 25.235 85.3113 25.725 86.5413 26.075C87.4613 26.335 88.1713 26.565 88.6713 26.765C89.1813 26.965 89.6213 27.24 89.9913 27.59C90.3613 27.94 90.6263 28.41 90.7863 29H89.2263ZM100.388 18.665C100.388 19.145 100.448 19.58 100.568 19.97C100.698 20.36 100.853 20.705 101.033 21.005C101.223 21.305 101.473 21.675 101.783 22.115C102.113 22.575 102.373 22.97 102.563 23.3C102.763 23.62 102.928 23.995 103.058 24.425C103.198 24.855 103.268 25.34 103.268 25.88C103.268 26.52 103.128 27.095 102.848 27.605C102.568 28.105 102.168 28.5 101.648 28.79C101.128 29.07 100.518 29.21 99.8176 29.21C99.1276 29.21 98.5226 29.075 98.0026 28.805C97.4926 28.535 97.0976 28.16 96.8176 27.68C96.5476 27.2 96.4126 26.65 96.4126 26.03C96.4126 25.23 96.6226 24.49 97.0426 23.81L98.2576 24.215C98.1476 24.445 98.0576 24.71 97.9876 25.01C97.9276 25.3 97.8976 25.585 97.8976 25.865C97.8976 26.525 98.0526 27.055 98.3626 27.455C98.6826 27.845 99.1676 28.04 99.8176 28.04C100.488 28.04 100.978 27.84 101.288 27.44C101.598 27.03 101.753 26.5 101.753 25.85C101.753 25.39 101.693 24.975 101.573 24.605C101.453 24.225 101.308 23.895 101.138 23.615C100.968 23.335 100.728 22.99 100.418 22.58C100.088 22.14 99.8226 21.755 99.6226 21.425C99.4326 21.095 99.2676 20.7 99.1276 20.24C98.9876 19.78 98.9176 19.255 98.9176 18.665H100.388Z" fill="white"/>
</svg>
